{
	"patcher" : 	{
		"fileversion" : 1,
		"appversion" : 		{
			"major" : 8,
			"minor" : 0,
			"revision" : 8,
			"architecture" : "x64",
			"modernui" : 1
		}
,
		"classnamespace" : "box",
		"rect" : [ 378.0, 92.0, 1105.0, 874.0 ],
		"bglocked" : 0,
		"openinpresentation" : 0,
		"default_fontsize" : 9.0,
		"default_fontface" : 0,
		"default_fontname" : "Arial",
		"gridonopen" : 1,
		"gridsize" : [ 15.0, 15.0 ],
		"gridsnaponopen" : 1,
		"objectsnaponopen" : 1,
		"statusbarvisible" : 2,
		"toolbarvisible" : 1,
		"lefttoolbarpinned" : 0,
		"toptoolbarpinned" : 0,
		"righttoolbarpinned" : 0,
		"bottomtoolbarpinned" : 0,
		"toolbars_unpinned_last_save" : 0,
		"tallnewobj" : 0,
		"boxanimatetime" : 200,
		"enablehscroll" : 1,
		"enablevscroll" : 1,
		"devicewidth" : 0.0,
		"description" : "",
		"digest" : "",
		"tags" : "",
		"style" : "",
		"subpatcher_template" : "",
		"boxes" : [ 			{
				"box" : 				{
					"id" : "obj-72",
					"maxclass" : "newobj",
					"numinlets" : 1,
					"numoutlets" : 2,
					"outlettype" : [ "bang", "bang" ],
					"patching_rect" : [ 985.0, 331.0, 34.0, 19.0 ],
					"text" : "edge~"
				}

			}
, 			{
				"box" : 				{
					"id" : "obj-71",
					"maxclass" : "newobj",
					"numinlets" : 1,
					"numoutlets" : 1,
					"outlettype" : [ "signal" ],
					"patching_rect" : [ 985.0, 272.0, 33.0, 19.0 ],
					"text" : "delta~"
				}

			}
, 			{
				"box" : 				{
					"id" : "obj-70",
					"maxclass" : "button",
					"numinlets" : 1,
					"numoutlets" : 1,
					"outlettype" : [ "bang" ],
					"parameter_enable" : 0,
					"patching_rect" : [ 985.0, 355.0, 24.0, 24.0 ]
				}

			}
, 			{
				"box" : 				{
					"id" : "obj-66",
					"maxclass" : "newobj",
					"numinlets" : 2,
					"numoutlets" : 1,
					"outlettype" : [ "signal" ],
					"patching_rect" : [ 985.0, 303.0, 29.5, 19.0 ],
					"text" : ">~ 0"
				}

			}
, 			{
				"box" : 				{
					"id" : "obj-63",
					"maxclass" : "newobj",
					"numinlets" : 1,
					"numoutlets" : 1,
					"outlettype" : [ "signal" ],
					"patching_rect" : [ 579.0, 776.0, 25.0, 19.0 ],
					"text" : "sig~"
				}

			}
, 			{
				"box" : 				{
					"id" : "obj-61",
					"maxclass" : "newobj",
					"numinlets" : 2,
					"numoutlets" : 1,
					"outlettype" : [ "signal" ],
					"patching_rect" : [ 491.0, 828.0, 37.0, 19.0 ],
					"text" : "*~ 0.03"
				}

			}
, 			{
				"box" : 				{
					"id" : "obj-58",
					"maxclass" : "newobj",
					"numinlets" : 2,
					"numoutlets" : 1,
					"outlettype" : [ "signal" ],
					"patching_rect" : [ 736.666625999999951, 819.0, 29.5, 19.0 ],
					"text" : "!-~"
				}

			}
, 			{
				"box" : 				{
					"id" : "obj-26",
					"maxclass" : "newobj",
					"numinlets" : 5,
					"numoutlets" : 4,
					"outlettype" : [ "int", "", "", "int" ],
					"patching_rect" : [ 658.0, 794.0, 61.0, 19.0 ],
					"text" : "counter"
				}

			}
, 			{
				"box" : 				{
					"format" : 6,
					"id" : "obj-62",
					"maxclass" : "flonum",
					"numinlets" : 1,
					"numoutlets" : 2,
					"outlettype" : [ "", "bang" ],
					"parameter_enable" : 0,
					"patching_rect" : [ 708.666625999999951, 480.0, 50.0, 19.0 ]
				}

			}
, 			{
				"box" : 				{
					"id" : "obj-59",
					"maxclass" : "number",
					"numinlets" : 1,
					"numoutlets" : 2,
					"outlettype" : [ "", "bang" ],
					"parameter_enable" : 0,
					"patching_rect" : [ 736.666625999999951, 626.0, 50.0, 19.0 ]
				}

			}
, 			{
				"box" : 				{
					"id" : "obj-55",
					"maxclass" : "gain~",
					"multichannelvariant" : 0,
					"numinlets" : 1,
					"numoutlets" : 2,
					"outlettype" : [ "signal", "" ],
					"parameter_enable" : 0,
					"patching_rect" : [ 775.0, 663.5, 22.0, 140.0 ]
				}

			}
, 			{
				"box" : 				{
					"id" : "obj-46",
					"maxclass" : "gain~",
					"multichannelvariant" : 0,
					"numinlets" : 1,
					"numoutlets" : 2,
					"outlettype" : [ "signal", "" ],
					"parameter_enable" : 0,
					"patching_rect" : [ 736.666625999999951, 663.5, 22.0, 140.0 ]
				}

			}
, 			{
				"box" : 				{
					"id" : "obj-39",
					"maxclass" : "newobj",
					"numinlets" : 1,
					"numoutlets" : 2,
					"outlettype" : [ "jit_matrix", "" ],
					"patching_rect" : [ 383.25, 693.0, 99.0, 19.0 ],
					"text" : "jit.map @map 0 1 -1 1"
				}

			}
, 			{
				"box" : 				{
					"id" : "obj-33",
					"maxclass" : "newobj",
					"numinlets" : 1,
					"numoutlets" : 2,
					"outlettype" : [ "jit_matrix", "" ],
					"patching_rect" : [ 383.25, 769.0, 99.0, 19.0 ],
					"text" : "jit.map @map 0 1 -1 1"
				}

			}
, 			{
				"box" : 				{
					"id" : "obj-12",
					"maxclass" : "newobj",
					"numinlets" : 1,
					"numoutlets" : 2,
					"outlettype" : [ "jit_matrix", "" ],
					"patching_rect" : [ 183.0, 693.0, 99.0, 19.0 ],
					"text" : "jit.map @map 0 1 -1 1"
				}

			}
, 			{
				"box" : 				{
					"id" : "obj-57",
					"maxclass" : "toggle",
					"numinlets" : 1,
					"numoutlets" : 1,
					"outlettype" : [ "int" ],
					"parameter_enable" : 0,
					"patching_rect" : [ 802.416625999999951, 604.0, 24.0, 24.0 ]
				}

			}
, 			{
				"box" : 				{
					"id" : "obj-54",
					"maxclass" : "newobj",
					"numinlets" : 2,
					"numoutlets" : 1,
					"outlettype" : [ "signal" ],
					"patching_rect" : [ 928.583374000000049, 679.0, 33.0, 19.0 ],
					"text" : "gate~"
				}

			}
, 			{
				"box" : 				{
					"id" : "obj-53",
					"maxclass" : "newobj",
					"numinlets" : 2,
					"numoutlets" : 1,
					"outlettype" : [ "signal" ],
					"patching_rect" : [ 865.5, 679.0, 33.0, 19.0 ],
					"text" : "gate~"
				}

			}
, 			{
				"box" : 				{
					"id" : "obj-52",
					"maxclass" : "newobj",
					"numinlets" : 2,
					"numoutlets" : 1,
					"outlettype" : [ "signal" ],
					"patching_rect" : [ 802.416625999999951, 679.0, 33.0, 19.0 ],
					"text" : "gate~"
				}

			}
, 			{
				"box" : 				{
					"id" : "obj-51",
					"maxclass" : "newobj",
					"numinlets" : 2,
					"numoutlets" : 2,
					"outlettype" : [ "bang", "" ],
					"patching_rect" : [ 802.416625999999951, 573.0, 39.0, 19.0 ],
					"text" : "sel 116"
				}

			}
, 			{
				"box" : 				{
					"id" : "obj-9",
					"maxclass" : "newobj",
					"numinlets" : 0,
					"numoutlets" : 4,
					"outlettype" : [ "int", "int", "int", "int" ],
					"patching_rect" : [ 802.416625999999951, 537.0, 50.5, 19.0 ],
					"text" : "key"
				}

			}
, 			{
				"box" : 				{
					"id" : "obj-11",
					"maxclass" : "message",
					"numinlets" : 2,
					"numoutlets" : 1,
					"outlettype" : [ "" ],
					"patching_rect" : [ 441.0, 50.0, 149.0, 19.0 ],
					"text" : "text laser protest"
				}

			}
, 			{
				"box" : 				{
					"id" : "obj-20",
					"maxclass" : "message",
					"numinlets" : 2,
					"numoutlets" : 1,
					"outlettype" : [ "" ],
					"patching_rect" : [ 491.0, 732.0, 73.0, 19.0 ],
					"text" : "sizeinsamps $1"
				}

			}
, 			{
				"box" : 				{
					"id" : "obj-17",
					"maxclass" : "newobj",
					"numinlets" : 1,
					"numoutlets" : 2,
					"outlettype" : [ "float", "bang" ],
					"patching_rect" : [ 530.0, 693.0, 60.0, 19.0 ],
					"text" : "buffer~ textx"
				}

			}
, 			{
				"box" : 				{
					"id" : "obj-16",
					"maxclass" : "newobj",
					"numinlets" : 1,
					"numoutlets" : 2,
					"outlettype" : [ "float", "bang" ],
					"patching_rect" : [ 491.0, 753.0, 60.0, 19.0 ],
					"text" : "buffer~ texty"
				}

			}
, 			{
				"box" : 				{
					"format" : 6,
					"id" : "obj-73",
					"maxclass" : "flonum",
					"numinlets" : 1,
					"numoutlets" : 2,
					"outlettype" : [ "", "bang" ],
					"parameter_enable" : 0,
					"patching_rect" : [ 686.0, 594.0, 50.0, 19.0 ]
				}

			}
, 			{
				"box" : 				{
					"id" : "obj-69",
					"maxclass" : "newobj",
					"numinlets" : 2,
					"numoutlets" : 1,
					"outlettype" : [ "" ],
					"patching_rect" : [ 686.0, 537.0, 67.0, 19.0 ],
					"text" : "expr 1/$f1*$f2"
				}

			}
, 			{
				"box" : 				{
					"id" : "obj-43",
					"maxclass" : "newobj",
					"numinlets" : 1,
					"numoutlets" : 2,
					"outlettype" : [ "jit_matrix", "" ],
					"patching_rect" : [ 183.0, 636.0, 59.0, 19.0 ],
					"text" : "jit.normalize"
				}

			}
, 			{
				"box" : 				{
					"id" : "obj-41",
					"maxclass" : "newobj",
					"numinlets" : 1,
					"numoutlets" : 2,
					"outlettype" : [ "jit_matrix", "" ],
					"patching_rect" : [ 383.25, 636.0, 59.0, 19.0 ],
					"text" : "jit.normalize"
				}

			}
, 			{
				"box" : 				{
					"id" : "obj-15",
					"maxclass" : "comment",
					"numinlets" : 1,
					"numoutlets" : 0,
					"patching_rect" : [ 491.0, 166.0, 150.0, 17.0 ],
					"text" : "kino MT"
				}

			}
, 			{
				"box" : 				{
					"format" : 6,
					"id" : "obj-56",
					"maxclass" : "flonum",
					"numinlets" : 1,
					"numoutlets" : 2,
					"outlettype" : [ "", "bang" ],
					"parameter_enable" : 0,
					"patching_rect" : [ 939.083374000000049, 617.0, 50.0, 19.0 ]
				}

			}
, 			{
				"box" : 				{
					"id" : "obj-3",
					"maxclass" : "newobj",
					"numinlets" : 1,
					"numoutlets" : 1,
					"outlettype" : [ "signal" ],
					"patching_rect" : [ 939.083374000000049, 649.0, 37.0, 19.0 ],
					"text" : "sig~ 0."
				}

			}
, 			{
				"box" : 				{
					"id" : "obj-7",
					"maxclass" : "newobj",
					"numinlets" : 1,
					"numoutlets" : 1,
					"outlettype" : [ "bang" ],
					"patching_rect" : [ 758.0, 110.5, 48.0, 19.0 ],
					"text" : "loadbang"
				}

			}
, 			{
				"box" : 				{
					"id" : "obj-5",
					"maxclass" : "message",
					"numinlets" : 2,
					"numoutlets" : 1,
					"outlettype" : [ "" ],
					"patching_rect" : [ 758.0, 136.0, 64.0, 19.0 ],
					"text" : "line_length 8."
				}

			}
, 			{
				"box" : 				{
					"id" : "obj-37",
					"maxclass" : "message",
					"numinlets" : 2,
					"numoutlets" : 1,
					"outlettype" : [ "" ],
					"patching_rect" : [ 908.0, 285.0, 29.5, 19.0 ],
					"text" : "0"
				}

			}
, 			{
				"box" : 				{
					"fontname" : "Arial",
					"fontsize" : 13.0,
					"id" : "obj-211",
					"maxclass" : "newobj",
					"numinlets" : 2,
					"numoutlets" : 2,
					"outlettype" : [ "jit_matrix", "" ],
					"patching_rect" : [ 422.0, 293.0, 148.0, 23.0 ],
					"text" : "jit.op @op <p @val 127"
				}

			}
, 			{
				"box" : 				{
					"format" : 6,
					"id" : "obj-190",
					"maxclass" : "flonum",
					"numinlets" : 1,
					"numoutlets" : 2,
					"outlettype" : [ "", "bang" ],
					"parameter_enable" : 0,
					"patching_rect" : [ 929.416625999999951, 449.0, 50.0, 19.0 ]
				}

			}
, 			{
				"box" : 				{
					"id" : "obj-188",
					"maxclass" : "newobj",
					"numinlets" : 2,
					"numoutlets" : 1,
					"outlettype" : [ "signal" ],
					"patching_rect" : [ 918.916625999999951, 491.0, 29.5, 19.0 ],
					"text" : "*~ 1."
				}

			}
, 			{
				"box" : 				{
					"id" : "obj-187",
					"maxclass" : "newobj",
					"numinlets" : 2,
					"numoutlets" : 1,
					"outlettype" : [ "signal" ],
					"patching_rect" : [ 812.916625999999951, 491.0, 29.5, 19.0 ],
					"text" : "*~ 1."
				}

			}
, 			{
				"box" : 				{
					"bufsize" : 256,
					"calccount" : 26,
					"id" : "obj-181",
					"maxclass" : "scope~",
					"numinlets" : 2,
					"numoutlets" : 0,
					"patching_rect" : [ 1047.416748000000098, 686.0, 131.0, 131.0 ]
				}

			}
, 			{
				"box" : 				{
					"id" : "obj-147",
					"maxclass" : "comment",
					"numinlets" : 1,
					"numoutlets" : 0,
					"patching_rect" : [ 133.5, 228.0, 123.0, 17.0 ],
					"text" : "duration between each letter"
				}

			}
, 			{
				"box" : 				{
					"id" : "obj-140",
					"linecount" : 2,
					"maxclass" : "message",
					"numinlets" : 2,
					"numoutlets" : 1,
					"outlettype" : [ "" ],
					"patching_rect" : [ 460.5, 188.0, 86.0, 29.0 ],
					"text" : "font \"Apple Braille Outline 6 Dot\""
				}

			}
, 			{
				"box" : 				{
					"id" : "obj-135",
					"maxclass" : "message",
					"numinlets" : 2,
					"numoutlets" : 1,
					"outlettype" : [ "" ],
					"patching_rect" : [ 402.5, 200.0, 48.0, 19.0 ],
					"text" : "face italic"
				}

			}
, 			{
				"box" : 				{
					"id" : "obj-133",
					"maxclass" : "newobj",
					"numinlets" : 1,
					"numoutlets" : 1,
					"outlettype" : [ "bang" ],
					"patching_rect" : [ 402.5, 174.0, 48.0, 19.0 ],
					"text" : "loadbang"
				}

			}
, 			{
				"box" : 				{
					"fontsize" : 9.0,
					"id" : "obj-87",
					"maxclass" : "comment",
					"numinlets" : 1,
					"numoutlets" : 0,
					"patching_rect" : [ 989.416687000000024, 114.0, 56.0, 17.0 ],
					"text" : "line by line"
				}

			}
, 			{
				"box" : 				{
					"fontname" : "Arial",
					"fontsize" : 9.0,
					"id" : "obj-64",
					"maxclass" : "comment",
					"numinlets" : 1,
					"numoutlets" : 0,
					"patching_rect" : [ 87.0, 395.0, 55.0, 17.0 ],
					"text" : "letter index"
				}

			}
, 			{
				"box" : 				{
					"fontsize" : 9.0,
					"id" : "obj-38",
					"maxclass" : "newobj",
					"numinlets" : 1,
					"numoutlets" : 1,
					"outlettype" : [ "bang" ],
					"patching_rect" : [ 411.25, 139.0, 21.0, 19.0 ],
					"text" : "t b"
				}

			}
, 			{
				"box" : 				{
					"fontsize" : 9.0,
					"id" : "obj-31",
					"maxclass" : "newobj",
					"numinlets" : 2,
					"numoutlets" : 1,
					"outlettype" : [ "int" ],
					"patching_rect" : [ 82.0, 357.0, 25.0, 19.0 ],
					"text" : "- 1"
				}

			}
, 			{
				"box" : 				{
					"fontsize" : 9.0,
					"id" : "obj-85",
					"maxclass" : "newobj",
					"numinlets" : 3,
					"numoutlets" : 1,
					"outlettype" : [ "signal" ],
					"patching_rect" : [ 918.916625999999951, 410.0, 58.0, 19.0 ],
					"text" : "wave~ texty"
				}

			}
, 			{
				"box" : 				{
					"fontsize" : 9.0,
					"id" : "obj-18",
					"maxclass" : "newobj",
					"numinlets" : 5,
					"numoutlets" : 0,
					"patching_rect" : [ 736.666625999999951, 858.0, 66.0, 19.0 ],
					"text" : "dac~ 3 4 5 6 7"
				}

			}
, 			{
				"box" : 				{
					"fontsize" : 9.0,
					"format" : 6,
					"id" : "obj-24",
					"maxclass" : "flonum",
					"numinlets" : 1,
					"numoutlets" : 2,
					"outlettype" : [ "", "bang" ],
					"parameter_enable" : 0,
					"patching_rect" : [ 812.916625999999951, 318.0, 72.0, 19.0 ],
					"presentation" : 1,
					"presentation_rect" : [ 116.5, 116.0, 65.0, 19.0 ]
				}

			}
, 			{
				"box" : 				{
					"fontsize" : 9.0,
					"id" : "obj-21",
					"maxclass" : "newobj",
					"numinlets" : 2,
					"numoutlets" : 1,
					"outlettype" : [ "signal" ],
					"patching_rect" : [ 812.916625999999951, 349.0, 51.0, 19.0 ],
					"text" : "phasor~ 2"
				}

			}
, 			{
				"box" : 				{
					"fontsize" : 9.0,
					"id" : "obj-29",
					"maxclass" : "newobj",
					"numinlets" : 3,
					"numoutlets" : 1,
					"outlettype" : [ "signal" ],
					"patching_rect" : [ 812.916625999999951, 410.0, 58.0, 19.0 ],
					"text" : "wave~ textx"
				}

			}
, 			{
				"box" : 				{
					"fontsize" : 9.0,
					"id" : "obj-47",
					"maxclass" : "newobj",
					"numinlets" : 1,
					"numoutlets" : 2,
					"outlettype" : [ "int", "clear" ],
					"patching_rect" : [ 50.0, 429.0, 43.0, 19.0 ],
					"text" : "t 0 clear"
				}

			}
, 			{
				"box" : 				{
					"fontsize" : 9.0,
					"id" : "obj-4",
					"maxclass" : "message",
					"numinlets" : 2,
					"numoutlets" : 1,
					"outlettype" : [ "" ],
					"patching_rect" : [ 337.333344000000011, 50.0, 91.0, 19.0 ],
					"text" : "text !@#$%^&*"
				}

			}
, 			{
				"box" : 				{
					"fontsize" : 9.0,
					"id" : "obj-1",
					"maxclass" : "newobj",
					"numinlets" : 1,
					"numoutlets" : 1,
					"outlettype" : [ "" ],
					"patching_rect" : [ 267.0, 249.0, 61.0, 19.0 ],
					"text" : "prepend text"
				}

			}
, 			{
				"box" : 				{
					"fontsize" : 9.0,
					"id" : "obj-289",
					"maxclass" : "newobj",
					"numinlets" : 2,
					"numoutlets" : 2,
					"outlettype" : [ "", "" ],
					"patching_rect" : [ 267.0, 227.0, 46.0, 19.0 ],
					"text" : "route set"
				}

			}
, 			{
				"box" : 				{
					"fontsize" : 9.0,
					"id" : "obj-280",
					"maxclass" : "message",
					"numinlets" : 2,
					"numoutlets" : 1,
					"outlettype" : [ "" ],
					"patching_rect" : [ 267.0, 175.0, 37.0, 19.0 ],
					"text" : "line $1"
				}

			}
, 			{
				"box" : 				{
					"fontsize" : 9.0,
					"id" : "obj-276",
					"maxclass" : "number",
					"numinlets" : 1,
					"numoutlets" : 2,
					"outlettype" : [ "", "bang" ],
					"parameter_enable" : 0,
					"patching_rect" : [ 267.0, 108.0, 48.0, 19.0 ]
				}

			}
, 			{
				"box" : 				{
					"fontsize" : 9.0,
					"id" : "obj-273",
					"maxclass" : "newobj",
					"numinlets" : 1,
					"numoutlets" : 3,
					"outlettype" : [ "", "bang", "int" ],
					"patching_rect" : [ 267.0, 200.0, 33.0, 19.0 ],
					"text" : "text"
				}

			}
, 			{
				"box" : 				{
					"fontsize" : 9.0,
					"id" : "obj-232",
					"maxclass" : "newobj",
					"numinlets" : 5,
					"numoutlets" : 4,
					"outlettype" : [ "int", "", "", "int" ],
					"patching_rect" : [ 50.0, 324.0, 56.0, 19.0 ],
					"text" : "counter 1 1"
				}

			}
, 			{
				"box" : 				{
					"fontsize" : 9.0,
					"id" : "obj-145",
					"maxclass" : "number",
					"numinlets" : 1,
					"numoutlets" : 2,
					"outlettype" : [ "", "bang" ],
					"parameter_enable" : 0,
					"patching_rect" : [ 468.0, 537.0, 44.0, 19.0 ]
				}

			}
, 			{
				"box" : 				{
					"fontname" : "Arial",
					"fontsize" : 9.0,
					"id" : "obj-146",
					"maxclass" : "newobj",
					"numinlets" : 1,
					"numoutlets" : 2,
					"outlettype" : [ "", "" ],
					"patching_rect" : [ 468.0, 503.0, 68.0, 19.0 ],
					"text" : "mxj list.Length"
				}

			}
, 			{
				"box" : 				{
					"fontsize" : 9.0,
					"id" : "obj-228",
					"maxclass" : "comment",
					"numinlets" : 1,
					"numoutlets" : 0,
					"patching_rect" : [ 24.0, 459.0, 31.0, 17.0 ],
					"text" : "clear "
				}

			}
, 			{
				"box" : 				{
					"fontsize" : 9.0,
					"id" : "obj-224",
					"maxclass" : "newobj",
					"numinlets" : 2,
					"numoutlets" : 2,
					"outlettype" : [ "jit_matrix", "" ],
					"patching_rect" : [ 183.0, 283.0, 95.0, 19.0 ],
					"text" : "jit.op @op * @val 0.1"
				}

			}
, 			{
				"box" : 				{
					"id" : "obj-219",
					"maxclass" : "button",
					"numinlets" : 1,
					"numoutlets" : 1,
					"outlettype" : [ "bang" ],
					"parameter_enable" : 0,
					"patching_rect" : [ 19.0, 429.0, 24.0, 24.0 ]
				}

			}
, 			{
				"box" : 				{
					"id" : "obj-208",
					"maxclass" : "button",
					"numinlets" : 1,
					"numoutlets" : 1,
					"outlettype" : [ "bang" ],
					"parameter_enable" : 0,
					"patching_rect" : [ 183.0, 435.0, 18.0, 18.0 ]
				}

			}
, 			{
				"box" : 				{
					"fontsize" : 9.0,
					"id" : "obj-209",
					"maxclass" : "newobj",
					"numinlets" : 2,
					"numoutlets" : 1,
					"outlettype" : [ "" ],
					"patching_rect" : [ 183.0, 503.0, 32.0, 19.0 ],
					"text" : "join 2"
				}

			}
, 			{
				"box" : 				{
					"fontsize" : 9.0,
					"id" : "obj-213",
					"maxclass" : "newobj",
					"numinlets" : 5,
					"numoutlets" : 4,
					"outlettype" : [ "int", "", "", "int" ],
					"patching_rect" : [ 183.0, 472.0, 49.0, 19.0 ],
					"text" : "counter"
				}

			}
, 			{
				"box" : 				{
					"fontsize" : 9.0,
					"id" : "obj-214",
					"maxclass" : "newobj",
					"numinlets" : 1,
					"numoutlets" : 4,
					"outlettype" : [ "", "", "", "" ],
					"patching_rect" : [ 183.0, 540.5, 42.0, 19.0 ],
					"saved_object_attributes" : 					{
						"embed" : 0
					}
,
					"text" : "coll"
				}

			}
, 			{
				"box" : 				{
					"fontsize" : 9.0,
					"id" : "obj-206",
					"maxclass" : "number",
					"numinlets" : 1,
					"numoutlets" : 2,
					"outlettype" : [ "", "bang" ],
					"parameter_enable" : 0,
					"patching_rect" : [ 50.0, 395.0, 36.0, 19.0 ]
				}

			}
, 			{
				"box" : 				{
					"id" : "obj-204",
					"maxclass" : "button",
					"numinlets" : 1,
					"numoutlets" : 1,
					"outlettype" : [ "bang" ],
					"parameter_enable" : 0,
					"patching_rect" : [ 383.25, 435.0, 18.0, 18.0 ]
				}

			}
, 			{
				"box" : 				{
					"fontsize" : 9.0,
					"id" : "obj-198",
					"maxclass" : "newobj",
					"numinlets" : 2,
					"numoutlets" : 1,
					"outlettype" : [ "" ],
					"patching_rect" : [ 383.25, 503.0, 32.0, 19.0 ],
					"text" : "join 2"
				}

			}
, 			{
				"box" : 				{
					"fontsize" : 9.0,
					"id" : "obj-153",
					"maxclass" : "newobj",
					"numinlets" : 5,
					"numoutlets" : 4,
					"outlettype" : [ "int", "", "", "int" ],
					"patching_rect" : [ 383.25, 472.0, 49.0, 19.0 ],
					"text" : "counter"
				}

			}
, 			{
				"box" : 				{
					"fontsize" : 9.0,
					"id" : "obj-152",
					"maxclass" : "newobj",
					"numinlets" : 1,
					"numoutlets" : 4,
					"outlettype" : [ "", "", "", "" ],
					"patching_rect" : [ 383.25, 540.5, 42.0, 19.0 ],
					"saved_object_attributes" : 					{
						"embed" : 0
					}
,
					"text" : "coll"
				}

			}
, 			{
				"box" : 				{
					"fontsize" : 9.0,
					"id" : "obj-144",
					"maxclass" : "newobj",
					"numinlets" : 1,
					"numoutlets" : 2,
					"outlettype" : [ "", "" ],
					"patching_rect" : [ 183.0, 363.0, 146.0, 19.0 ],
					"text" : "jit.spill @plane 0 @listlength 2048"
				}

			}
, 			{
				"box" : 				{
					"fontsize" : 9.0,
					"id" : "obj-138",
					"maxclass" : "newobj",
					"numinlets" : 1,
					"numoutlets" : 2,
					"outlettype" : [ "jit_matrix", "" ],
					"patching_rect" : [ 183.0, 611.0, 103.0, 19.0 ],
					"text" : "jit.matrix texty 1 float32"
				}

			}
, 			{
				"box" : 				{
					"fontsize" : 9.0,
					"id" : "obj-139",
					"maxclass" : "newobj",
					"numinlets" : 1,
					"numoutlets" : 2,
					"outlettype" : [ "", "" ],
					"patching_rect" : [ 183.0, 574.0, 57.0, 19.0 ],
					"text" : "jit.fill texty 0"
				}

			}
, 			{
				"box" : 				{
					"fontsize" : 9.0,
					"id" : "obj-143",
					"maxclass" : "newobj",
					"numinlets" : 2,
					"numoutlets" : 2,
					"outlettype" : [ "", "" ],
					"patching_rect" : [ 183.0, 401.0, 144.0, 19.0 ],
					"text" : "zl.group 2048 @zlmaxsize 32768"
				}

			}
, 			{
				"box" : 				{
					"fontsize" : 9.0,
					"id" : "obj-136",
					"maxclass" : "message",
					"numinlets" : 2,
					"numoutlets" : 1,
					"outlettype" : [ "" ],
					"patching_rect" : [ 468.0, 567.0, 38.0, 19.0 ],
					"text" : "dim $1"
				}

			}
, 			{
				"box" : 				{
					"fontsize" : 9.0,
					"id" : "obj-128",
					"maxclass" : "newobj",
					"numinlets" : 1,
					"numoutlets" : 2,
					"outlettype" : [ "jit_matrix", "" ],
					"patching_rect" : [ 383.25, 613.5, 103.0, 19.0 ],
					"text" : "jit.matrix textx 1 float32"
				}

			}
, 			{
				"box" : 				{
					"fontsize" : 9.0,
					"id" : "obj-119",
					"maxclass" : "newobj",
					"numinlets" : 1,
					"numoutlets" : 2,
					"outlettype" : [ "", "" ],
					"patching_rect" : [ 383.25, 574.0, 57.0, 19.0 ],
					"text" : "jit.fill textx 0"
				}

			}
, 			{
				"box" : 				{
					"fontsize" : 9.0,
					"id" : "obj-116",
					"maxclass" : "message",
					"numinlets" : 2,
					"numoutlets" : 1,
					"outlettype" : [ "" ],
					"patching_rect" : [ 316.25, 651.0, 50.0, 19.0 ],
					"text" : "samps $1"
				}

			}
, 			{
				"box" : 				{
					"fontsize" : 9.0,
					"id" : "obj-112",
					"maxclass" : "newobj",
					"numinlets" : 1,
					"numoutlets" : 2,
					"outlettype" : [ "", "" ],
					"patching_rect" : [ 383.25, 363.0, 146.0, 19.0 ],
					"text" : "jit.spill @plane 0 @listlength 2048"
				}

			}
, 			{
				"box" : 				{
					"fontsize" : 9.0,
					"id" : "obj-111",
					"maxclass" : "newobj",
					"numinlets" : 2,
					"numoutlets" : 2,
					"outlettype" : [ "", "" ],
					"patching_rect" : [ 383.25, 401.0, 144.0, 19.0 ],
					"text" : "zl.group 2048 @zlmaxsize 32768"
				}

			}
, 			{
				"box" : 				{
					"fontsize" : 9.0,
					"id" : "obj-80",
					"maxclass" : "newobj",
					"numinlets" : 1,
					"numoutlets" : 3,
					"outlettype" : [ "jit_matrix", "jit_matrix", "" ],
					"patching_rect" : [ 383.25, 728.0, 69.0, 19.0 ],
					"text" : "jit.buffer~ texty"
				}

			}
, 			{
				"box" : 				{
					"fontsize" : 9.0,
					"id" : "obj-79",
					"maxclass" : "newobj",
					"numinlets" : 1,
					"numoutlets" : 3,
					"outlettype" : [ "jit_matrix", "jit_matrix", "" ],
					"patching_rect" : [ 183.0, 728.0, 69.0, 19.0 ],
					"text" : "jit.buffer~ textx"
				}

			}
, 			{
				"box" : 				{
					"fontsize" : 9.0,
					"id" : "obj-42",
					"maxclass" : "newobj",
					"numinlets" : 1,
					"numoutlets" : 3,
					"outlettype" : [ "jit_matrix", "jit_matrix", "" ],
					"patching_rect" : [ 183.0, 319.0, 80.0, 19.0 ],
					"text" : "jit.unpack 2"
				}

			}
, 			{
				"box" : 				{
					"fontname" : "Arial",
					"fontsize" : 9.0,
					"id" : "obj-60",
					"maxclass" : "comment",
					"numinlets" : 1,
					"numoutlets" : 0,
					"patching_rect" : [ 725.333312999999976, 319.0, 78.0, 17.0 ],
					"text" : "number of letters"
				}

			}
, 			{
				"box" : 				{
					"fontname" : "Arial",
					"fontsize" : 9.0,
					"id" : "obj-35",
					"linecount" : 52,
					"maxclass" : "message",
					"numinlets" : 2,
					"numoutlets" : 1,
					"outlettype" : [ "" ],
					"patching_rect" : [ 562.0, 626.0, 116.0, 531.0 ],
					"text" : "672 1164 672 1152 420 1020 1044 420 348 1284 1044 1020 672 1164 672 1152 420 1020 1044 420 348 1284 1044 1020 672 1164 672 1152 420 1020 1044 420 348 1284 1044 1020 672 1164 672 1152 420 1020 1044 420 348 1284 1044 1020 672 1164 672 1152 420 1020 1044 420 348 1284 1044 1020 672 1164 672 1152 420 1020 1044 420 348 1284 1044 1020 672 1164 672 1152 420 1020 1044 420 348 1284 1044 1020 672 1164 672 1152 420 1020 1044 420 348 1284 1044 1020 672 1164 672 1152 420 1020 1044 420 348 1284 1044 1020 672 1164 672 1152 420 1020 1044 420 348 1284 1044 1020 672 1164 672 1152 420 1020 1044 420 348 1284 1044 1020 672 1164 672 1152 420 1020 1044 420 348 1284 1044 1020 672 1164 672 1152 420 1020 1044 420 348 1284 1044 1020 672 1164 672 1152 420 1020 1044 420 348 1284 1044 1020 672 1164 672 1152 420 1020 1044 420 348 1284 1044 1020 672 1164 672 1152 420 1020 1044 420 348 1284 1044 1020 672 1164 672 1152 420 1020 1044 420 348 1284 1044 1020 672 1164 672 1152 420 1020 1044 420 348 1284 1044 1020 672 1164 672 1152 420 1020 1044 420 348 1284 1044 1020 672 1164 672 1152 420 1020 1044 420 348 1284 1044 1020 672 1164 672 1152 420 1020 1044 420 348 1284 1044 1020 672 1164 672 1152"
				}

			}
, 			{
				"box" : 				{
					"fontname" : "Verdana",
					"fontsize" : 9.0,
					"id" : "obj-22",
					"maxclass" : "newobj",
					"numinlets" : 2,
					"numoutlets" : 2,
					"outlettype" : [ "", "" ],
					"patching_rect" : [ 661.333312999999976, 429.0, 93.0, 19.0 ],
					"text" : "zl group"
				}

			}
, 			{
				"box" : 				{
					"fontname" : "Arial",
					"fontsize" : 9.0,
					"id" : "obj-23",
					"maxclass" : "comment",
					"numinlets" : 1,
					"numoutlets" : 0,
					"patching_rect" : [ 619.0, 513.0, 133.0, 17.0 ],
					"text" : " number of dims for each letter"
				}

			}
, 			{
				"box" : 				{
					"fontname" : "Arial",
					"fontsize" : 9.0,
					"id" : "obj-28",
					"maxclass" : "message",
					"numinlets" : 2,
					"numoutlets" : 1,
					"outlettype" : [ "" ],
					"patching_rect" : [ 674.5, 394.0, 40.0, 19.0 ],
					"text" : "420"
				}

			}
, 			{
				"box" : 				{
					"fontname" : "Arial",
					"fontsize" : 9.0,
					"id" : "obj-30",
					"maxclass" : "message",
					"numinlets" : 2,
					"numoutlets" : 1,
					"outlettype" : [ "" ],
					"patching_rect" : [ 619.0, 394.0, 51.0, 19.0 ],
					"text" : "float32"
				}

			}
, 			{
				"box" : 				{
					"fontname" : "Arial",
					"fontsize" : 9.0,
					"id" : "obj-13",
					"maxclass" : "message",
					"numinlets" : 2,
					"numoutlets" : 1,
					"outlettype" : [ "" ],
					"patching_rect" : [ 556.0, 394.0, 61.0, 19.0 ],
					"text" : "8"
				}

			}
, 			{
				"box" : 				{
					"fontname" : "Arial",
					"fontsize" : 9.0,
					"id" : "obj-34",
					"maxclass" : "newobj",
					"numinlets" : 4,
					"numoutlets" : 4,
					"outlettype" : [ "", "", "", "" ],
					"patching_rect" : [ 598.0, 363.0, 114.0, 19.0 ],
					"text" : "route planecount type dim"
				}

			}
, 			{
				"box" : 				{
					"fontname" : "Arial",
					"fontsize" : 9.0,
					"id" : "obj-14",
					"maxclass" : "newobj",
					"numinlets" : 1,
					"numoutlets" : 1,
					"outlettype" : [ "" ],
					"patching_rect" : [ 598.0, 335.0, 57.0, 19.0 ],
					"text" : "jit.matrixinfo"
				}

			}
, 			{
				"box" : 				{
					"fontname" : "Arial",
					"fontsize" : 9.0,
					"id" : "obj-36",
					"maxclass" : "number",
					"numinlets" : 1,
					"numoutlets" : 2,
					"outlettype" : [ "", "bang" ],
					"parameter_enable" : 0,
					"patching_rect" : [ 674.5, 319.0, 48.0, 19.0 ]
				}

			}
, 			{
				"box" : 				{
					"fontname" : "Verdana",
					"fontsize" : 9.0,
					"id" : "obj-8",
					"maxclass" : "newobj",
					"numinlets" : 1,
					"numoutlets" : 1,
					"outlettype" : [ "bang" ],
					"patching_rect" : [ 674.5, 253.0, 96.0, 19.0 ],
					"text" : "t b"
				}

			}
, 			{
				"box" : 				{
					"fontname" : "Verdana",
					"fontsize" : 9.0,
					"id" : "obj-44",
					"maxclass" : "newobj",
					"numinlets" : 5,
					"numoutlets" : 4,
					"outlettype" : [ "int", "", "", "int" ],
					"patching_rect" : [ 674.5, 277.0, 92.0, 19.0 ],
					"text" : "counter"
				}

			}
, 			{
				"box" : 				{
					"fontname" : "Verdana",
					"fontsize" : 9.0,
					"id" : "obj-45",
					"maxclass" : "newobj",
					"numinlets" : 1,
					"numoutlets" : 4,
					"outlettype" : [ "bang", "bang", "", "int" ],
					"patching_rect" : [ 337.333344000000011, 175.0, 48.0, 19.0 ],
					"text" : "t b b s 0"
				}

			}
, 			{
				"box" : 				{
					"fontname" : "Verdana",
					"fontsize" : 9.0,
					"id" : "obj-67",
					"maxclass" : "newobj",
					"numinlets" : 1,
					"numoutlets" : 2,
					"outlettype" : [ "jit_matrix", "" ],
					"patching_rect" : [ 356.666687000000024, 249.0, 228.0, 19.0 ],
					"text" : "jit.gl.text3d text @matrixoutput 1 @automatic 1"
				}

			}
, 			{
				"box" : 				{
					"id" : "obj-27",
					"maxclass" : "button",
					"numinlets" : 1,
					"numoutlets" : 1,
					"outlettype" : [ "bang" ],
					"parameter_enable" : 0,
					"patching_rect" : [ 566.0, 108.0, 24.0, 24.0 ]
				}

			}
, 			{
				"box" : 				{
					"fontname" : "Arial",
					"fontsize" : 9.0,
					"id" : "obj-10",
					"maxclass" : "newobj",
					"numinlets" : 1,
					"numoutlets" : 1,
					"outlettype" : [ "" ],
					"patching_rect" : [ 566.0, 136.0, 37.0, 19.0 ],
					"text" : "fontlist"
				}

			}
, 			{
				"box" : 				{
					"fontname" : "Arial",
					"fontsize" : 9.0,
					"id" : "obj-95",
					"maxclass" : "newobj",
					"numinlets" : 1,
					"numoutlets" : 1,
					"outlettype" : [ "" ],
					"patching_rect" : [ 658.0, 214.0, 72.0, 19.0 ],
					"text" : "prepend face"
				}

			}
, 			{
				"box" : 				{
					"id" : "obj-96",
					"items" : [ "normal", ",", "bold", ",", "italic" ],
					"maxclass" : "umenu",
					"numinlets" : 1,
					"numoutlets" : 3,
					"outlettype" : [ "int", "", "" ],
					"parameter_enable" : 0,
					"patching_rect" : [ 658.0, 188.0, 87.0, 19.0 ]
				}

			}
, 			{
				"box" : 				{
					"fontname" : "Arial",
					"fontsize" : 9.0,
					"id" : "obj-97",
					"maxclass" : "newobj",
					"numinlets" : 1,
					"numoutlets" : 1,
					"outlettype" : [ "" ],
					"patching_rect" : [ 566.0, 188.0, 55.0, 19.0 ],
					"text" : "tosymbol"
				}

			}
, 			{
				"box" : 				{
					"fontname" : "Arial",
					"fontsize" : 9.0,
					"id" : "obj-99",
					"maxclass" : "newobj",
					"numinlets" : 1,
					"numoutlets" : 1,
					"outlettype" : [ "" ],
					"patching_rect" : [ 566.0, 214.0, 62.0, 19.0 ],
					"text" : "prepend font"
				}

			}
, 			{
				"box" : 				{
					"id" : "obj-100",
					"items" : [ "Ableton Sans Bold", ",", "Ableton Sans Light", ",", "Ableton Sans Medium", ",", "Al Bayan Plain", ",", "Al Bayan Bold", ",", "Al Nile", ",", "Al Nile Bold", ",", "Al Tarikh", ",", "American Typewriter", ",", "American Typewriter Light", ",", "American Typewriter Semibold", ",", "American Typewriter Bold", ",", "American Typewriter Condensed", ",", "American Typewriter Condensed Light", ",", "American Typewriter Condensed Bold", ",", "Andale Mono", ",", "Apple Braille Outline 6 Dot", ",", "Apple Braille Outline 8 Dot", ",", "Apple Braille Pinpoint 6 Dot", ",", "Apple Braille Pinpoint 8 Dot", ",", "Apple Braille", ",", "Apple Chancery Chancery", ",", "Apple Color Emoji", ",", "Apple LiGothic Medium", ",", "Apple LiSung Light", ",", "Apple SD Gothic Neo", ",", "Apple SD Gothic Neo Thin", ",", "Apple SD Gothic Neo UltraLight", ",", "Apple SD Gothic Neo Light", ",", "Apple SD Gothic Neo Medium", ",", "Apple SD Gothic Neo SemiBold", ",", "Apple SD Gothic Neo Bold", ",", "Apple SD Gothic Neo ExtraBold", ",", "Apple SD Gothic Neo Heavy", ",", "Apple Symbols", ",", "AppleGothic", ",", "AppleMyungjo", ",", "Arial", ",", "Arial Italic", ",", "Arial Bold", ",", "Arial Bold Italic", ",", "Arial Black", ",", "Arial Hebrew", ",", "Arial Hebrew Light", ",", "Arial Hebrew Bold", ",", "Arial Hebrew Scholar", ",", "Arial Hebrew Scholar Light", ",", "Arial Hebrew Scholar Bold", ",", "Arial Narrow", ",", "Arial Narrow Italic", ",", "Arial Narrow Bold", ",", "Arial Narrow Bold Italic", ",", "Arial Rounded MT Bold", ",", "Arial Unicode MS", ",", "Athelas", ",", "Athelas Italic", ",", "Athelas Bold", ",", "Athelas Bold Italic", ",", "Avenir Book", ",", "Avenir Roman", ",", "Avenir Book Oblique", ",", "Avenir Oblique", ",", "Avenir Light", ",", "Avenir Light Oblique", ",", "Avenir Medium", ",", "Avenir Medium Oblique", ",", "Avenir Heavy", ",", "Avenir Heavy Oblique", ",", "Avenir Black", ",", "Avenir Black Oblique", ",", "Avenir Next", ",", "Avenir Next Italic", ",", "Avenir Next Ultra Light", ",", "Avenir Next Ultra Light Italic", ",", "Avenir Next Medium", ",", "Avenir Next Medium Italic", ",", "Avenir Next Demi Bold", ",", "Avenir Next Demi Bold Italic", ",", "Avenir Next Bold", ",", "Avenir Next Bold Italic", ",", "Avenir Next Heavy", ",", "Avenir Next Heavy Italic", ",", "Avenir Next Condensed", ",", "Avenir Next Condensed Italic", ",", "Avenir Next Condensed Ultra Light", ",", "Avenir Next Condensed Ultra Light Italic", ",", "Avenir Next Condensed Medium", ",", "Avenir Next Condensed Medium Italic", ",", "Avenir Next Condensed Demi Bold", ",", "Avenir Next Condensed Demi Bold Italic", ",", "Avenir Next Condensed Bold", ",", "Avenir Next Condensed Bold Italic", ",", "Avenir Next Condensed Heavy", ",", "Avenir Next Condensed Heavy Italic", ",", "Ayuthaya", ",", "Baghdad", ",", "Bangla MN", ",", "Bangla MN Bold", ",", "Bangla Sangam MN", ",", "Bangla Sangam MN Bold", ",", "Baoli SC", ",", "Baoli TC", ",", "Baskerville", ",", "Baskerville Italic", ",", "Baskerville SemiBold", ",", "Baskerville SemiBold Italic", ",", "Baskerville Bold", ",", "Baskerville Bold Italic", ",", "Beirut", ",", "BiauKai", ",", "Big Caslon Medium", ",", "Bodoni 72 Book", ",", "Bodoni 72 Book Italic", ",", "Bodoni 72 Bold", ",", "Bodoni 72 Oldstyle Book", ",", "Bodoni 72 Oldstyle Book Italic", ",", "Bodoni 72 Oldstyle Bold", ",", "Bodoni 72 Smallcaps Book", ",", "Bodoni Ornaments", ",", "Bradley Hand Bold", ",", "Brush Script MT Italic", ",", "Chalkboard", ",", "Chalkboard Bold", ",", "Chalkboard SE", ",", "Chalkboard SE Light", ",", "Chalkboard SE Bold", ",", "Chalkduster", ",", "Charter Roman", ",", "Charter Italic", ",", "Charter Bold", ",", "Charter Bold Italic", ",", "Charter Black", ",", "Charter Black Italic", ",", "Cochin", ",", "Cochin Italic", ",", "Cochin Bold", ",", "Cochin Bold Italic", ",", "Comic Sans MS", ",", "Comic Sans MS Bold", ",", "Copperplate", ",", "Copperplate Light", ",", "Copperplate Bold", ",", "Corsiva Hebrew", ",", "Corsiva Hebrew Bold", ",", "Courier", ",", "Courier Oblique", ",", "Courier Bold", ",", "Courier Bold Oblique", ",", "Courier New", ",", "Courier New Italic", ",", "Courier New Bold", ",", "Courier New Bold Italic", ",", "Damascus", ",", "Damascus Light", ",", "Damascus Medium", ",", "Damascus Semi Bold", ",", "Damascus Bold", ",", "DecoType Naskh", ",", "Devanagari MT", ",", "Devanagari MT Bold", ",", "Devanagari Sangam MN", ",", "Devanagari Sangam MN Bold", ",", "Didot", ",", "Didot Italic", ",", "Didot Bold", ",", "DIN Alternate Bold", ",", "DIN Condensed Bold", ",", "Diwan Kufi", ",", "Diwan Thuluth", ",", "Euphemia UCAS", ",", "Euphemia UCAS Italic", ",", "Euphemia UCAS Bold", ",", "Farah", ",", "Farisi", ",", "Futura Medium", ",", "Futura Medium Italic", ",", "Futura Bold", ",", "Futura Condensed Medium", ",", "Futura Condensed ExtraBold", ",", "Garamond", ",", "Garamond Italic", ",", "Garamond Bold", ",", "Garamond Bold Italic", ",", "GB18030 Bitmap", ",", "Geeza Pro", ",", "Geeza Pro Bold", ",", "Geneva", ",", "Georgia", ",", "Georgia Italic", ",", "Georgia Bold", ",", "Georgia Bold Italic", ",", "Gill Sans", ",", "Gill Sans Italic", ",", "Gill Sans Light", ",", "Gill Sans Light Italic", ",", "Gill Sans SemiBold", ",", "Gill Sans SemiBold Italic", ",", "Gill Sans Bold", ",", "Gill Sans Bold Italic", ",", "Gill Sans UltraBold", ",", "Gujarati MT", ",", "Gujarati MT Bold", ",", "Gujarati Sangam MN", ",", "Gujarati Sangam MN Bold", ",", "GungSeo", ",", "Gurmukhi MN", ",", "Gurmukhi MN Bold", ",", "Gurmukhi MT", ",", "Gurmukhi Sangam MN", ",", "Gurmukhi Sangam MN Bold", ",", "Hannotate SC", ",", "Hannotate SC Bold", ",", "Hannotate TC", ",", "Hannotate TC Bold", ",", "HanziPen SC", ",", "HanziPen SC Bold", ",", "HanziPen TC", ",", "HanziPen TC Bold", ",", "HeadLineA", ",", "Hei", ",", "Heiti SC Light", ",", "Heiti SC Medium", ",", "Heiti TC Light", ",", "Heiti TC Medium", ",", "Helvetica", ",", "Helvetica Oblique", ",", "Helvetica Light", ",", "Helvetica Light Oblique", ",", "Helvetica Bold", ",", "Helvetica Bold Oblique", ",", "Helvetica Neue", ",", "Helvetica Neue Italic", ",", "Helvetica Neue UltraLight", ",", "Helvetica Neue UltraLight Italic", ",", "Helvetica Neue Thin", ",", "Helvetica Neue Thin Italic", ",", "Helvetica Neue Light", ",", "Helvetica Neue Light Italic", ",", "Helvetica Neue Medium", ",", "Helvetica Neue Medium Italic", ",", "Helvetica Neue Bold", ",", "Helvetica Neue Bold Italic", ",", "Helvetica Neue Condensed Bold", ",", "Helvetica Neue Condensed Black", ",", "Herculanum", ",", "Hiragino Kaku Gothic Pro W3", ",", "Hiragino Kaku Gothic Pro W6", ",", "Hiragino Kaku Gothic ProN W3", ",", "Hiragino Kaku Gothic ProN W6", ",", "Hiragino Kaku Gothic Std W8", ",", "Hiragino Kaku Gothic StdN W8", ",", "Hiragino Maru Gothic Pro W4", ",", "Hiragino Maru Gothic ProN W4", ",", "Hiragino Mincho Pro W3", ",", "Hiragino Mincho Pro W6", ",", "Hiragino Mincho ProN W3", ",", "Hiragino Mincho ProN W6", ",", "Hiragino Sans W0", ",", "Hiragino Sans W1", ",", "Hiragino Sans W2", ",", "Hiragino Sans W3", ",", "Hiragino Sans W4", ",", "Hiragino Sans W5", ",", "Hiragino Sans W6", ",", "Hiragino Sans W7", ",", "Hiragino Sans W8", ",", "Hiragino Sans W9", ",", "Hiragino Sans CNS W3", ",", "Hiragino Sans CNS W6", ",", "Hiragino Sans GB W3", ",", "Hiragino Sans GB W6", ",", "Hoefler Text", ",", "Hoefler Text Ornaments", ",", "Hoefler Text Italic", ",", "Hoefler Text Black", ",", "Hoefler Text Black Italic", ",", "Impact", ",", "InaiMathi", ",", "InaiMathi Bold", ",", "Iowan Old Style Roman", ",", "Iowan Old Style Titling", ",", "Iowan Old Style Italic", ",", "Iowan Old Style Bold", ",", "Iowan Old Style Bold Italic", ",", "Iowan Old Style Black", ",", "Iowan Old Style Black Italic", ",", "ITF Devanagari Book", ",", "ITF Devanagari Light", ",", "ITF Devanagari Medium", ",", "ITF Devanagari Demi", ",", "ITF Devanagari Bold", ",", "ITF Devanagari Marathi Book", ",", "ITF Devanagari Marathi Light", ",", "ITF Devanagari Marathi Medium", ",", "ITF Devanagari Marathi Demi", ",", "ITF Devanagari Marathi Bold", ",", "Kai", ",", "Kailasa", ",", "Kailasa Bold", ",", "Kaiti SC", ",", "Kaiti SC Bold", ",", "Kaiti SC Black", ",", "Kaiti TC", ",", "Kaiti TC Bold", ",", "Kaiti TC Black", ",", "Kannada MN", ",", "Kannada MN Bold", ",", "Kannada Sangam MN", ",", "Kannada Sangam MN Bold", ",", "Kefa", ",", "Kefa Bold", ",", "Khmer MN", ",", "Khmer MN Bold", ",", "Khmer Sangam MN", ",", "Klee Medium", ",", "Klee Demibold", ",", "Kohinoor Bangla", ",", "Kohinoor Bangla Light", ",", "Kohinoor Bangla Medium", ",", "Kohinoor Bangla Semibold", ",", "Kohinoor Bangla Bold", ",", "Kohinoor Devanagari", ",", "Kohinoor Devanagari Light", ",", "Kohinoor Devanagari Medium", ",", "Kohinoor Devanagari Semibold", ",", "Kohinoor Devanagari Bold", ",", "Kohinoor Telugu", ",", "Kohinoor Telugu Light", ",", "Kohinoor Telugu Medium", ",", "Kohinoor Telugu Semibold", ",", "Kohinoor Telugu Bold", ",", "Kokonor", ",", "Krungthep", ",", "KufiStandardGK", ",", "Lantinghei SC Extralight", ",", "Lantinghei SC Demibold", ",", "Lantinghei SC Heavy", ",", "Lantinghei TC Extralight", ",", "Lantinghei TC Demibold", ",", "Lantinghei TC Heavy", ",", "Lao MN", ",", "Lao MN Bold", ",", "Lao Sangam MN", ",", "Lato", ",", "Lato Italic", ",", "Lato Hairline", ",", "Lato Hairline Italic", ",", "Lato Light", ",", "Lato Light Italic", ",", "Lato Medium", ",", "Lato Medium Italic", ",", "Lato Semibold", ",", "Lato Semibold Italic", ",", "Lato Bold", ",", "Lato Bold Italic", ",", "Lato Heavy", ",", "Lato Heavy Italic", ",", "Lato Black", ",", "Lato Black Italic", ",", "Lato Thin", ",", "Lato Thin Italic", ",", "Libian SC", ",", "Libian TC", ",", "LiHei Pro Medium", ",", "LingWai SC Medium", ",", "LingWai TC Medium", ",", "LiSong Pro Light", ",", "Lucida Grande", ",", "Lucida Grande Bold", ",", "Luminari", ",", "Malayalam MN", ",", "Malayalam MN Bold", ",", "Malayalam Sangam MN", ",", "Malayalam Sangam MN Bold", ",", "Marion", ",", "Marion Italic", ",", "Marion Bold", ",", "Marker Felt Thin", ",", "Marker Felt Wide", ",", "Menlo", ",", "Menlo Italic", ",", "Menlo Bold", ",", "Menlo Bold Italic", ",", "Microsoft Sans Serif", ",", "Mishafi", ",", "Mishafi Gold", ",", "Monaco", ",", "Mshtakan", ",", "Mshtakan Oblique", ",", "Mshtakan Bold", ",", "Mshtakan BoldOblique", ",", "Muna", ",", "Muna Bold", ",", "Muna Black", ",", "Myanmar MN", ",", "Myanmar MN Bold", ",", "Myanmar Sangam MN", ",", "Myanmar Sangam MN Bold", ",", "Nadeem", ",", "Nanum Brush Script", ",", "Nanum Gothic", ",", "Nanum Gothic Bold", ",", "Nanum Gothic ExtraBold", ",", "Nanum Myeongjo", ",", "Nanum Myeongjo Bold", ",", "Nanum Myeongjo ExtraBold", ",", "Nanum Pen Script", ",", "New Peninim MT", ",", "New Peninim MT Inclined", ",", "New Peninim MT Bold", ",", "New Peninim MT Bold Inclined", ",", "Noteworthy Light", ",", "Noteworthy Bold", ",", "Noto Nastaliq Urdu", ",", "Optima", ",", "Optima Italic", ",", "Optima Bold", ",", "Optima Bold Italic", ",", "Optima ExtraBlack", ",", "Oriya MN", ",", "Oriya MN Bold", ",", "Oriya Sangam MN", ",", "Oriya Sangam MN Bold", ",", "Osaka", ",", "Osaka Regular-Mono", ",", "Palatino", ",", "Palatino Italic", ",", "Palatino Bold", ",", "Palatino Bold Italic", ",", "Papyrus", ",", "Papyrus Condensed", ",", "PCMyungjo", ",", "Phosphate Inline", ",", "Phosphate Solid", ",", "PilGi", ",", "PingFang HK", ",", "PingFang HK Ultralight", ",", "PingFang HK Thin", ",", "PingFang HK Light", ",", "PingFang HK Medium", ",", "PingFang HK Semibold", ",", "PingFang SC", ",", "PingFang SC Ultralight", ",", "PingFang SC Thin", ",", "PingFang SC Light", ",", "PingFang SC Medium", ",", "PingFang SC Semibold", ",", "PingFang TC", ",", "PingFang TC Ultralight", ",", "PingFang TC Thin", ",", "PingFang TC Light", ",", "PingFang TC Medium", ",", "PingFang TC Semibold", ",", "Plantagenet Cherokee", ",", "PT Mono", ",", "PT Mono Bold", ",", "PT Sans", ",", "PT Sans Italic", ",", "PT Sans Bold", ",", "PT Sans Bold Italic", ",", "PT Sans Caption", ",", "PT Sans Caption Bold", ",", "PT Sans Narrow", ",", "PT Sans Narrow Bold", ",", "PT Serif", ",", "PT Serif Italic", ",", "PT Serif Bold", ",", "PT Serif Bold Italic", ",", "PT Serif Caption", ",", "PT Serif Caption Italic", ",", "Raanana", ",", "Raanana Bold", ",", "Rockwell", ",", "Rockwell Italic", ",", "Rockwell Bold", ",", "Rockwell Bold Italic", ",", "Sana", ",", "Sathu", ",", "Savoye LET Plain", ",", "Seravek", ",", "Seravek Italic", ",", "Seravek ExtraLight", ",", "Seravek ExtraLight Italic", ",", "Seravek Light", ",", "Seravek Light Italic", ",", "Seravek Medium", ",", "Seravek Medium Italic", ",", "Seravek Bold", ",", "Seravek Bold Italic", ",", "Shree Devanagari 714", ",", "Shree Devanagari 714 Italic", ",", "Shree Devanagari 714 Bold", ",", "Shree Devanagari 714 Bold Italic", ",", "SignPainter HouseScript", ",", "SignPainter HouseScript Semibold", ",", "Silom", ",", "Sinhala MN", ",", "Sinhala MN Bold", ",", "Sinhala Sangam MN", ",", "Sinhala Sangam MN Bold", ",", "Skia", ",", "Skia Light", ",", "Skia Bold", ",", "Skia Black", ",", "Skia Extended", ",", "Skia Light Extended", ",", "Skia Black Extended", ",", "Skia Condensed", ",", "Skia Light Condensed", ",", "Skia Black Condensed", ",", "Snell Roundhand", ",", "Snell Roundhand Bold", ",", "Snell Roundhand Black", ",", "Songti SC", ",", "Songti SC Light", ",", "Songti SC Bold", ",", "Songti SC Black", ",", "Songti TC", ",", "Songti TC Light", ",", "Songti TC Bold", ",", "STFangsong", ",", "STHeiti Light", ",", "STHeiti", ",", "STIXGeneral", ",", "STIXGeneral Italic", ",", "STIXGeneral Bold", ",", "STIXGeneral Bold Italic", ",", "STIXIntegralsD", ",", "STIXIntegralsD Bold", ",", "STIXIntegralsSm", ",", "STIXIntegralsSm Bold", ",", "STIXIntegralsUp", ",", "STIXIntegralsUp Bold", ",", "STIXIntegralsUpD", ",", "STIXIntegralsUpD Bold", ",", "STIXIntegralsUpSm", ",", "STIXIntegralsUpSm Bold", ",", "STIXNonUnicode", ",", "STIXNonUnicode Italic", ",", "STIXNonUnicode Bold", ",", "STIXNonUnicode Bold Italic", ",", "STIXSizeFiveSym", ",", "STIXSizeFourSym", ",", "STIXSizeFourSym Bold", ",", "STIXSizeOneSym", ",", "STIXSizeOneSym Bold", ",", "STIXSizeThreeSym", ",", "STIXSizeThreeSym Bold", ",", "STIXSizeTwoSym", ",", "STIXSizeTwoSym Bold", ",", "STIXVariants", ",", "STIXVariants Bold", ",", "STKaiti", ",", "STSong", ",", "Sukhumvit Set Text", ",", "Sukhumvit Set Light", ",", "Sukhumvit Set Medium", ",", "Sukhumvit Set Semi Bold", ",", "Sukhumvit Set Bold", ",", "Sukhumvit Set Thin", ",", "Superclarendon", ",", "Superclarendon Italic", ",", "Superclarendon Light", ",", "Superclarendon Light Italic", ",", "Superclarendon Bold", ",", "Superclarendon Bold Italic", ",", "Superclarendon Black", ",", "Superclarendon Black Italic", ",", "Symbol", ",", "Tahoma", ",", "Tahoma Bold", ",", "Tamil MN", ",", "Tamil MN Bold", ",", "Tamil Sangam MN", ",", "Tamil Sangam MN Bold", ",", "Telugu MN", ",", "Telugu MN Bold", ",", "Telugu Sangam MN", ",", "Telugu Sangam MN Bold", ",", "Thonburi", ",", "Thonburi Light", ",", "Thonburi Bold", ",", "Times", ",", "Times Italic", ",", "Times Bold", ",", "Times Bold Italic", ",", "Times New Roman", ",", "Times New Roman Italic", ",", "Times New Roman Bold", ",", "Times New Roman Bold Italic", ",", "Toppan Bunkyu Gothic", ",", "Toppan Bunkyu Gothic Demibold", ",", "Toppan Bunkyu Midashi Gothic Extrabold", ",", "Toppan Bunkyu Midashi Mincho Extrabold", ",", "Toppan Bunkyu Mincho", ",", "Trattatello", ",", "Trebuchet MS", ",", "Trebuchet MS Italic", ",", "Trebuchet MS Bold", ",", "Trebuchet MS Bold Italic", ",", "Tsukushi A Round Gothic", ",", "Tsukushi A Round Gothic Bold", ",", "Tsukushi B Round Gothic", ",", "Tsukushi B Round Gothic Bold", ",", "Verdana", ",", "Verdana Italic", ",", "Verdana Bold", ",", "Verdana Bold Italic", ",", "Waseem", ",", "Waseem Light", ",", "Wawati SC", ",", "Wawati TC", ",", "Webdings", ",", "Weibei SC Bold", ",", "Weibei TC Bold", ",", "Wingdings", ",", "Wingdings 2", ",", "Wingdings 3", ",", "Xingkai SC Light", ",", "Xingkai SC Bold", ",", "Xingkai TC Light", ",", "Xingkai TC Bold", ",", "Yuanti SC", ",", "Yuanti SC Light", ",", "Yuanti SC Bold", ",", "Yuanti TC", ",", "Yuanti TC Light", ",", "Yuanti TC Bold", ",", "YuGothic Medium", ",", "YuGothic Bold", ",", "YuKyokasho Medium", ",", "YuKyokasho Bold", ",", "YuKyokasho Yoko Medium", ",", "YuKyokasho Yoko Bold", ",", "YuMincho Medium", ",", "YuMincho Demibold", ",", "YuMincho Extrabold", ",", "YuMincho +36p Kana Medium", ",", "YuMincho +36p Kana Demibold", ",", "YuMincho +36p Kana Extrabold", ",", "Yuppy SC", ",", "Yuppy TC", ",", "Zapf Dingbats", ",", "Zapfino" ],
					"maxclass" : "umenu",
					"numinlets" : 1,
					"numoutlets" : 3,
					"outlettype" : [ "int", "", "" ],
					"parameter_enable" : 0,
					"patching_rect" : [ 566.0, 161.0, 139.0, 19.0 ]
				}

			}
, 			{
				"box" : 				{
					"id" : "obj-6",
					"maxclass" : "toggle",
					"numinlets" : 1,
					"numoutlets" : 1,
					"outlettype" : [ "int" ],
					"parameter_enable" : 0,
					"patching_rect" : [ 24.0, 109.0, 24.0, 24.0 ]
				}

			}
, 			{
				"box" : 				{
					"fontsize" : 9.0,
					"id" : "obj-2",
					"maxclass" : "newobj",
					"numinlets" : 1,
					"numoutlets" : 3,
					"outlettype" : [ "", "bang", "" ],
					"patching_rect" : [ 24.0, 137.0, 169.0, 19.0 ],
					"text" : "jit.world text @floating 1 @size 200 200"
				}

			}
, 			{
				"box" : 				{
					"id" : "obj-196",
					"maxclass" : "message",
					"numinlets" : 2,
					"numoutlets" : 1,
					"outlettype" : [ "" ],
					"patching_rect" : [ 307.0, 136.0, 50.0, 19.0 ],
					"text" : "query"
				}

			}
, 			{
				"box" : 				{
					"attr" : "line_length",
					"id" : "obj-25",
					"maxclass" : "attrui",
					"numinlets" : 1,
					"numoutlets" : 1,
					"outlettype" : [ "" ],
					"patching_rect" : [ 775.0, 161.0, 150.0, 19.0 ]
				}

			}
, 			{
				"box" : 				{
					"attr" : "align",
					"id" : "obj-32",
					"maxclass" : "attrui",
					"numinlets" : 1,
					"numoutlets" : 1,
					"outlettype" : [ "" ],
					"patching_rect" : [ 775.0, 188.0, 150.0, 19.0 ]
				}

			}
, 			{
				"box" : 				{
					"attr" : "matrixoutput",
					"id" : "obj-50",
					"maxclass" : "attrui",
					"numinlets" : 1,
					"numoutlets" : 1,
					"outlettype" : [ "" ],
					"patching_rect" : [ 733.0, 219.0, 150.0, 19.0 ]
				}

			}
, 			{
				"box" : 				{
					"attr" : "line_width",
					"id" : "obj-117",
					"maxclass" : "attrui",
					"numinlets" : 1,
					"numoutlets" : 1,
					"outlettype" : [ "" ],
					"patching_rect" : [ 942.416687000000024, 153.0, 150.0, 19.0 ]
				}

			}
, 			{
				"box" : 				{
					"attr" : "leadscale",
					"id" : "obj-120",
					"maxclass" : "attrui",
					"numinlets" : 1,
					"numoutlets" : 1,
					"outlettype" : [ "" ],
					"patching_rect" : [ 942.416687000000024, 185.0, 150.0, 19.0 ]
				}

			}
, 			{
				"box" : 				{
					"attr" : "fontsize",
					"id" : "obj-40",
					"maxclass" : "attrui",
					"numinlets" : 1,
					"numoutlets" : 1,
					"outlettype" : [ "" ],
					"patching_rect" : [ 895.416686999999911, 219.0, 150.0, 19.0 ]
				}

			}
, 			{
				"box" : 				{
					"id" : "obj-19",
					"maxclass" : "message",
					"numinlets" : 2,
					"numoutlets" : 1,
					"outlettype" : [ "" ],
					"patching_rect" : [ 530.0, 672.0, 73.0, 19.0 ],
					"text" : "sizeinsamps $1"
				}

			}
 ],
		"lines" : [ 			{
				"patchline" : 				{
					"destination" : [ "obj-45", 0 ],
					"midpoints" : [ 276.5, 310.0, 331.666687000000024, 310.0, 331.666687000000024, 165.0, 346.833344000000011, 165.0 ],
					"source" : [ "obj-1", 0 ]
				}

			}
, 			{
				"patchline" : 				{
					"destination" : [ "obj-100", 0 ],
					"source" : [ "obj-10", 0 ]
				}

			}
, 			{
				"patchline" : 				{
					"destination" : [ "obj-97", 0 ],
					"midpoints" : [ 635.5, 189.0, 575.5, 189.0 ],
					"source" : [ "obj-100", 1 ]
				}

			}
, 			{
				"patchline" : 				{
					"destination" : [ "obj-38", 0 ],
					"order" : 0,
					"source" : [ "obj-11", 0 ]
				}

			}
, 			{
				"patchline" : 				{
					"destination" : [ "obj-45", 0 ],
					"order" : 1,
					"source" : [ "obj-11", 0 ]
				}

			}
, 			{
				"patchline" : 				{
					"destination" : [ "obj-111", 0 ],
					"order" : 2,
					"source" : [ "obj-112", 0 ]
				}

			}
, 			{
				"patchline" : 				{
					"destination" : [ "obj-198", 1 ],
					"midpoints" : [ 392.75, 426.0, 405.75, 426.0 ],
					"order" : 0,
					"source" : [ "obj-112", 0 ]
				}

			}
, 			{
				"patchline" : 				{
					"destination" : [ "obj-204", 0 ],
					"order" : 1,
					"source" : [ "obj-112", 0 ]
				}

			}
, 			{
				"patchline" : 				{
					"destination" : [ "obj-79", 0 ],
					"midpoints" : [ 325.75, 679.0, 192.5, 679.0 ],
					"order" : 1,
					"source" : [ "obj-116", 0 ]
				}

			}
, 			{
				"patchline" : 				{
					"destination" : [ "obj-80", 0 ],
					"midpoints" : [ 325.75, 678.5, 392.75, 678.5 ],
					"order" : 0,
					"source" : [ "obj-116", 0 ]
				}

			}
, 			{
				"patchline" : 				{
					"destination" : [ "obj-67", 0 ],
					"source" : [ "obj-117", 0 ]
				}

			}
, 			{
				"patchline" : 				{
					"destination" : [ "obj-128", 0 ],
					"source" : [ "obj-119", 0 ]
				}

			}
, 			{
				"patchline" : 				{
					"destination" : [ "obj-79", 0 ],
					"source" : [ "obj-12", 0 ]
				}

			}
, 			{
				"patchline" : 				{
					"destination" : [ "obj-67", 0 ],
					"source" : [ "obj-120", 0 ]
				}

			}
, 			{
				"patchline" : 				{
					"destination" : [ "obj-41", 0 ],
					"source" : [ "obj-128", 0 ]
				}

			}
, 			{
				"patchline" : 				{
					"destination" : [ "obj-135", 0 ],
					"order" : 1,
					"source" : [ "obj-133", 0 ]
				}

			}
, 			{
				"patchline" : 				{
					"destination" : [ "obj-140", 0 ],
					"midpoints" : [ 412.0, 196.0, 458.0, 196.0, 458.0, 177.0, 470.0, 177.0 ],
					"order" : 0,
					"source" : [ "obj-133", 0 ]
				}

			}
, 			{
				"patchline" : 				{
					"destination" : [ "obj-67", 0 ],
					"midpoints" : [ 412.0, 240.5, 366.166687000000024, 240.5 ],
					"source" : [ "obj-135", 0 ]
				}

			}
, 			{
				"patchline" : 				{
					"destination" : [ "obj-128", 0 ],
					"midpoints" : [ 477.5, 599.25, 392.75, 599.25 ],
					"order" : 0,
					"source" : [ "obj-136", 0 ]
				}

			}
, 			{
				"patchline" : 				{
					"destination" : [ "obj-138", 0 ],
					"midpoints" : [ 477.5, 598.0, 192.5, 598.0 ],
					"order" : 1,
					"source" : [ "obj-136", 0 ]
				}

			}
, 			{
				"patchline" : 				{
					"destination" : [ "obj-43", 0 ],
					"source" : [ "obj-138", 0 ]
				}

			}
, 			{
				"patchline" : 				{
					"destination" : [ "obj-138", 0 ],
					"source" : [ "obj-139", 0 ]
				}

			}
, 			{
				"patchline" : 				{
					"destination" : [ "obj-34", 0 ],
					"source" : [ "obj-14", 0 ]
				}

			}
, 			{
				"patchline" : 				{
					"destination" : [ "obj-67", 0 ],
					"midpoints" : [ 470.0, 240.5, 366.166687000000024, 240.5 ],
					"source" : [ "obj-140", 0 ]
				}

			}
, 			{
				"patchline" : 				{
					"destination" : [ "obj-143", 0 ],
					"order" : 2,
					"source" : [ "obj-144", 0 ]
				}

			}
, 			{
				"patchline" : 				{
					"destination" : [ "obj-208", 0 ],
					"order" : 1,
					"source" : [ "obj-144", 0 ]
				}

			}
, 			{
				"patchline" : 				{
					"destination" : [ "obj-209", 1 ],
					"midpoints" : [ 192.5, 424.0, 205.5, 424.0 ],
					"order" : 0,
					"source" : [ "obj-144", 0 ]
				}

			}
, 			{
				"patchline" : 				{
					"destination" : [ "obj-111", 1 ],
					"midpoints" : [ 477.5, 566.0, 539.625, 566.0, 539.625, 390.0, 517.75, 390.0 ],
					"order" : 2,
					"source" : [ "obj-145", 0 ]
				}

			}
, 			{
				"patchline" : 				{
					"destination" : [ "obj-116", 0 ],
					"midpoints" : [ 477.5, 598.0, 325.75, 598.0 ],
					"order" : 5,
					"source" : [ "obj-145", 0 ]
				}

			}
, 			{
				"patchline" : 				{
					"destination" : [ "obj-136", 0 ],
					"midpoints" : [ 477.5, 561.0, 477.5, 561.0 ],
					"order" : 4,
					"source" : [ "obj-145", 0 ]
				}

			}
, 			{
				"patchline" : 				{
					"destination" : [ "obj-143", 1 ],
					"midpoints" : [ 477.5, 566.0, 334.5, 566.0, 334.5, 390.0, 317.5, 390.0 ],
					"order" : 6,
					"source" : [ "obj-145", 0 ]
				}

			}
, 			{
				"patchline" : 				{
					"destination" : [ "obj-19", 0 ],
					"order" : 1,
					"source" : [ "obj-145", 0 ]
				}

			}
, 			{
				"patchline" : 				{
					"destination" : [ "obj-20", 0 ],
					"order" : 3,
					"source" : [ "obj-145", 0 ]
				}

			}
, 			{
				"patchline" : 				{
					"destination" : [ "obj-69", 0 ],
					"order" : 0,
					"source" : [ "obj-145", 0 ]
				}

			}
, 			{
				"patchline" : 				{
					"destination" : [ "obj-145", 0 ],
					"midpoints" : [ 477.5, 529.0, 477.5, 529.0 ],
					"source" : [ "obj-146", 0 ]
				}

			}
, 			{
				"patchline" : 				{
					"destination" : [ "obj-119", 0 ],
					"order" : 1,
					"source" : [ "obj-152", 0 ]
				}

			}
, 			{
				"patchline" : 				{
					"destination" : [ "obj-146", 0 ],
					"midpoints" : [ 392.75, 567.5, 435.125, 567.5, 435.125, 492.0, 477.5, 492.0 ],
					"order" : 0,
					"source" : [ "obj-152", 0 ]
				}

			}
, 			{
				"patchline" : 				{
					"destination" : [ "obj-198", 0 ],
					"source" : [ "obj-153", 0 ]
				}

			}
, 			{
				"patchline" : 				{
					"destination" : [ "obj-52", 1 ],
					"source" : [ "obj-187", 0 ]
				}

			}
, 			{
				"patchline" : 				{
					"destination" : [ "obj-53", 1 ],
					"source" : [ "obj-188", 0 ]
				}

			}
, 			{
				"patchline" : 				{
					"destination" : [ "obj-17", 0 ],
					"source" : [ "obj-19", 0 ]
				}

			}
, 			{
				"patchline" : 				{
					"destination" : [ "obj-187", 1 ],
					"order" : 1,
					"source" : [ "obj-190", 0 ]
				}

			}
, 			{
				"patchline" : 				{
					"destination" : [ "obj-188", 1 ],
					"order" : 0,
					"source" : [ "obj-190", 0 ]
				}

			}
, 			{
				"patchline" : 				{
					"destination" : [ "obj-273", 0 ],
					"source" : [ "obj-196", 0 ]
				}

			}
, 			{
				"patchline" : 				{
					"destination" : [ "obj-152", 0 ],
					"source" : [ "obj-198", 0 ]
				}

			}
, 			{
				"patchline" : 				{
					"destination" : [ "obj-16", 0 ],
					"source" : [ "obj-20", 0 ]
				}

			}
, 			{
				"patchline" : 				{
					"destination" : [ "obj-153", 0 ],
					"source" : [ "obj-204", 0 ]
				}

			}
, 			{
				"patchline" : 				{
					"destination" : [ "obj-152", 0 ],
					"midpoints" : [ 59.5, 530.75, 392.75, 530.75 ],
					"order" : 1,
					"source" : [ "obj-206", 0 ]
				}

			}
, 			{
				"patchline" : 				{
					"destination" : [ "obj-214", 0 ],
					"midpoints" : [ 59.5, 530.75, 192.5, 530.75 ],
					"order" : 2,
					"source" : [ "obj-206", 0 ]
				}

			}
, 			{
				"patchline" : 				{
					"destination" : [ "obj-63", 0 ],
					"order" : 0,
					"source" : [ "obj-206", 0 ]
				}

			}
, 			{
				"patchline" : 				{
					"destination" : [ "obj-213", 0 ],
					"source" : [ "obj-208", 0 ]
				}

			}
, 			{
				"patchline" : 				{
					"destination" : [ "obj-214", 0 ],
					"source" : [ "obj-209", 0 ]
				}

			}
, 			{
				"patchline" : 				{
					"destination" : [ "obj-29", 0 ],
					"order" : 2,
					"source" : [ "obj-21", 0 ]
				}

			}
, 			{
				"patchline" : 				{
					"destination" : [ "obj-71", 0 ],
					"order" : 0,
					"source" : [ "obj-21", 0 ]
				}

			}
, 			{
				"patchline" : 				{
					"destination" : [ "obj-85", 0 ],
					"midpoints" : [ 822.416625999999951, 388.5, 928.416625999999951, 388.5 ],
					"order" : 1,
					"source" : [ "obj-21", 0 ]
				}

			}
, 			{
				"patchline" : 				{
					"destination" : [ "obj-224", 0 ],
					"midpoints" : [ 431.5, 326.0, 312.0, 326.0, 312.0, 272.0, 192.5, 272.0 ],
					"source" : [ "obj-211", 0 ]
				}

			}
, 			{
				"patchline" : 				{
					"destination" : [ "obj-209", 0 ],
					"source" : [ "obj-213", 0 ]
				}

			}
, 			{
				"patchline" : 				{
					"destination" : [ "obj-139", 0 ],
					"source" : [ "obj-214", 0 ]
				}

			}
, 			{
				"patchline" : 				{
					"destination" : [ "obj-47", 0 ],
					"midpoints" : [ 28.5, 463.0, 45.0, 463.0, 45.0, 418.0, 59.5, 418.0 ],
					"source" : [ "obj-219", 0 ]
				}

			}
, 			{
				"patchline" : 				{
					"destination" : [ "obj-35", 1 ],
					"midpoints" : [ 670.833312999999976, 454.0, 668.5, 454.0 ],
					"source" : [ "obj-22", 0 ]
				}

			}
, 			{
				"patchline" : 				{
					"destination" : [ "obj-42", 0 ],
					"source" : [ "obj-224", 0 ]
				}

			}
, 			{
				"patchline" : 				{
					"destination" : [ "obj-206", 0 ],
					"source" : [ "obj-232", 0 ]
				}

			}
, 			{
				"patchline" : 				{
					"destination" : [ "obj-21", 0 ],
					"source" : [ "obj-24", 0 ]
				}

			}
, 			{
				"patchline" : 				{
					"destination" : [ "obj-67", 0 ],
					"source" : [ "obj-25", 0 ]
				}

			}
, 			{
				"patchline" : 				{
					"destination" : [ "obj-10", 0 ],
					"source" : [ "obj-27", 0 ]
				}

			}
, 			{
				"patchline" : 				{
					"destination" : [ "obj-289", 0 ],
					"source" : [ "obj-273", 0 ]
				}

			}
, 			{
				"patchline" : 				{
					"destination" : [ "obj-280", 0 ],
					"source" : [ "obj-276", 0 ]
				}

			}
, 			{
				"patchline" : 				{
					"destination" : [ "obj-273", 0 ],
					"source" : [ "obj-280", 0 ]
				}

			}
, 			{
				"patchline" : 				{
					"destination" : [ "obj-1", 0 ],
					"source" : [ "obj-289", 0 ]
				}

			}
, 			{
				"patchline" : 				{
					"destination" : [ "obj-187", 0 ],
					"source" : [ "obj-29", 0 ]
				}

			}
, 			{
				"patchline" : 				{
					"destination" : [ "obj-54", 1 ],
					"source" : [ "obj-3", 0 ]
				}

			}
, 			{
				"patchline" : 				{
					"destination" : [ "obj-67", 0 ],
					"source" : [ "obj-32", 0 ]
				}

			}
, 			{
				"patchline" : 				{
					"destination" : [ "obj-13", 1 ],
					"source" : [ "obj-34", 0 ]
				}

			}
, 			{
				"patchline" : 				{
					"destination" : [ "obj-22", 0 ],
					"order" : 1,
					"source" : [ "obj-34", 2 ]
				}

			}
, 			{
				"patchline" : 				{
					"destination" : [ "obj-28", 1 ],
					"midpoints" : [ 670.833333333333371, 389.0, 705.0, 389.0 ],
					"order" : 0,
					"source" : [ "obj-34", 2 ]
				}

			}
, 			{
				"patchline" : 				{
					"destination" : [ "obj-30", 1 ],
					"midpoints" : [ 639.166666666666629, 388.0, 660.5, 388.0 ],
					"source" : [ "obj-34", 1 ]
				}

			}
, 			{
				"patchline" : 				{
					"destination" : [ "obj-21", 1 ],
					"source" : [ "obj-37", 0 ]
				}

			}
, 			{
				"patchline" : 				{
					"destination" : [ "obj-219", 0 ],
					"midpoints" : [ 420.75, 161.5, 28.5, 161.5 ],
					"source" : [ "obj-38", 0 ]
				}

			}
, 			{
				"patchline" : 				{
					"destination" : [ "obj-80", 0 ],
					"source" : [ "obj-39", 0 ]
				}

			}
, 			{
				"patchline" : 				{
					"destination" : [ "obj-38", 0 ],
					"midpoints" : [ 346.833344000000011, 136.0, 420.75, 136.0 ],
					"order" : 0,
					"source" : [ "obj-4", 0 ]
				}

			}
, 			{
				"patchline" : 				{
					"destination" : [ "obj-45", 0 ],
					"order" : 1,
					"source" : [ "obj-4", 0 ]
				}

			}
, 			{
				"patchline" : 				{
					"destination" : [ "obj-67", 0 ],
					"source" : [ "obj-40", 0 ]
				}

			}
, 			{
				"patchline" : 				{
					"destination" : [ "obj-39", 0 ],
					"source" : [ "obj-41", 0 ]
				}

			}
, 			{
				"patchline" : 				{
					"destination" : [ "obj-112", 0 ],
					"midpoints" : [ 223.0, 352.0, 392.75, 352.0 ],
					"source" : [ "obj-42", 1 ]
				}

			}
, 			{
				"patchline" : 				{
					"destination" : [ "obj-144", 0 ],
					"source" : [ "obj-42", 0 ]
				}

			}
, 			{
				"patchline" : 				{
					"destination" : [ "obj-12", 0 ],
					"source" : [ "obj-43", 0 ]
				}

			}
, 			{
				"patchline" : 				{
					"destination" : [ "obj-232", 4 ],
					"midpoints" : [ 684.0, 309.5, 96.5, 309.5 ],
					"order" : 1,
					"source" : [ "obj-44", 0 ]
				}

			}
, 			{
				"patchline" : 				{
					"destination" : [ "obj-36", 0 ],
					"order" : 0,
					"source" : [ "obj-44", 0 ]
				}

			}
, 			{
				"patchline" : 				{
					"destination" : [ "obj-22", 0 ],
					"midpoints" : [ 346.833344000000011, 421.5, 670.833312999999976, 421.5 ],
					"source" : [ "obj-45", 0 ]
				}

			}
, 			{
				"patchline" : 				{
					"destination" : [ "obj-44", 3 ],
					"midpoints" : [ 375.833344000000011, 240.0, 738.75, 240.0 ],
					"source" : [ "obj-45", 3 ]
				}

			}
, 			{
				"patchline" : 				{
					"destination" : [ "obj-67", 0 ],
					"source" : [ "obj-45", 2 ]
				}

			}
, 			{
				"patchline" : 				{
					"destination" : [ "obj-67", 0 ],
					"midpoints" : [ 356.500010666666697, 221.0, 366.166687000000024, 221.0 ],
					"source" : [ "obj-45", 1 ]
				}

			}
, 			{
				"patchline" : 				{
					"destination" : [ "obj-55", 0 ],
					"source" : [ "obj-46", 1 ]
				}

			}
, 			{
				"patchline" : 				{
					"destination" : [ "obj-58", 0 ],
					"source" : [ "obj-46", 0 ]
				}

			}
, 			{
				"patchline" : 				{
					"destination" : [ "obj-152", 0 ],
					"midpoints" : [ 83.5, 493.75, 392.75, 493.75 ],
					"order" : 1,
					"source" : [ "obj-47", 1 ]
				}

			}
, 			{
				"patchline" : 				{
					"destination" : [ "obj-153", 2 ],
					"midpoints" : [ 59.5, 466.5, 407.75, 466.5 ],
					"order" : 0,
					"source" : [ "obj-47", 0 ]
				}

			}
, 			{
				"patchline" : 				{
					"destination" : [ "obj-213", 2 ],
					"midpoints" : [ 59.5, 466.5, 207.5, 466.5 ],
					"order" : 1,
					"source" : [ "obj-47", 0 ]
				}

			}
, 			{
				"patchline" : 				{
					"destination" : [ "obj-214", 0 ],
					"midpoints" : [ 83.5, 493.75, 192.5, 493.75 ],
					"order" : 3,
					"source" : [ "obj-47", 1 ]
				}

			}
, 			{
				"patchline" : 				{
					"destination" : [ "obj-232", 2 ],
					"midpoints" : [ 59.5, 458.0, 11.75, 458.0, 11.75, 313.0, 78.0, 313.0 ],
					"order" : 2,
					"source" : [ "obj-47", 0 ]
				}

			}
, 			{
				"patchline" : 				{
					"destination" : [ "obj-79", 0 ],
					"midpoints" : [ 83.5, 678.0, 192.5, 678.0 ],
					"order" : 2,
					"source" : [ "obj-47", 1 ]
				}

			}
, 			{
				"patchline" : 				{
					"destination" : [ "obj-80", 0 ],
					"midpoints" : [ 83.5, 678.0, 392.75, 678.0 ],
					"order" : 0,
					"source" : [ "obj-47", 1 ]
				}

			}
, 			{
				"patchline" : 				{
					"destination" : [ "obj-67", 0 ],
					"source" : [ "obj-5", 0 ]
				}

			}
, 			{
				"patchline" : 				{
					"destination" : [ "obj-67", 0 ],
					"source" : [ "obj-50", 0 ]
				}

			}
, 			{
				"patchline" : 				{
					"destination" : [ "obj-57", 0 ],
					"source" : [ "obj-51", 0 ]
				}

			}
, 			{
				"patchline" : 				{
					"destination" : [ "obj-46", 0 ],
					"source" : [ "obj-52", 0 ]
				}

			}
, 			{
				"patchline" : 				{
					"destination" : [ "obj-55", 0 ],
					"source" : [ "obj-53", 0 ]
				}

			}
, 			{
				"patchline" : 				{
					"destination" : [ "obj-18", 4 ],
					"order" : 0,
					"source" : [ "obj-54", 0 ]
				}

			}
, 			{
				"patchline" : 				{
					"destination" : [ "obj-18", 3 ],
					"order" : 1,
					"source" : [ "obj-54", 0 ]
				}

			}
, 			{
				"patchline" : 				{
					"destination" : [ "obj-18", 2 ],
					"order" : 2,
					"source" : [ "obj-54", 0 ]
				}

			}
, 			{
				"patchline" : 				{
					"destination" : [ "obj-18", 1 ],
					"source" : [ "obj-55", 0 ]
				}

			}
, 			{
				"patchline" : 				{
					"destination" : [ "obj-3", 0 ],
					"source" : [ "obj-56", 0 ]
				}

			}
, 			{
				"patchline" : 				{
					"destination" : [ "obj-52", 0 ],
					"order" : 2,
					"source" : [ "obj-57", 0 ]
				}

			}
, 			{
				"patchline" : 				{
					"destination" : [ "obj-53", 0 ],
					"order" : 1,
					"source" : [ "obj-57", 0 ]
				}

			}
, 			{
				"patchline" : 				{
					"destination" : [ "obj-54", 0 ],
					"order" : 0,
					"source" : [ "obj-57", 0 ]
				}

			}
, 			{
				"patchline" : 				{
					"destination" : [ "obj-18", 0 ],
					"source" : [ "obj-58", 0 ]
				}

			}
, 			{
				"patchline" : 				{
					"destination" : [ "obj-46", 0 ],
					"source" : [ "obj-59", 0 ]
				}

			}
, 			{
				"patchline" : 				{
					"destination" : [ "obj-2", 0 ],
					"source" : [ "obj-6", 0 ]
				}

			}
, 			{
				"patchline" : 				{
					"destination" : [ "obj-58", 0 ],
					"source" : [ "obj-61", 0 ]
				}

			}
, 			{
				"patchline" : 				{
					"destination" : [ "obj-69", 1 ],
					"source" : [ "obj-62", 0 ]
				}

			}
, 			{
				"patchline" : 				{
					"destination" : [ "obj-61", 0 ],
					"source" : [ "obj-63", 0 ]
				}

			}
, 			{
				"patchline" : 				{
					"destination" : [ "obj-72", 0 ],
					"source" : [ "obj-66", 0 ]
				}

			}
, 			{
				"patchline" : 				{
					"destination" : [ "obj-14", 0 ],
					"midpoints" : [ 366.166687000000024, 325.0, 607.5, 325.0 ],
					"order" : 1,
					"source" : [ "obj-67", 0 ]
				}

			}
, 			{
				"patchline" : 				{
					"destination" : [ "obj-211", 0 ],
					"midpoints" : [ 366.166687000000024, 280.0, 431.5, 280.0 ],
					"order" : 2,
					"source" : [ "obj-67", 0 ]
				}

			}
, 			{
				"patchline" : 				{
					"destination" : [ "obj-8", 0 ],
					"midpoints" : [ 366.166687000000024, 286.0, 662.75, 286.0, 662.75, 242.0, 684.0, 242.0 ],
					"order" : 0,
					"source" : [ "obj-67", 0 ]
				}

			}
, 			{
				"patchline" : 				{
					"destination" : [ "obj-73", 0 ],
					"source" : [ "obj-69", 0 ]
				}

			}
, 			{
				"patchline" : 				{
					"destination" : [ "obj-5", 0 ],
					"source" : [ "obj-7", 0 ]
				}

			}
, 			{
				"patchline" : 				{
					"destination" : [ "obj-232", 0 ],
					"source" : [ "obj-70", 0 ]
				}

			}
, 			{
				"patchline" : 				{
					"destination" : [ "obj-66", 0 ],
					"source" : [ "obj-71", 0 ]
				}

			}
, 			{
				"patchline" : 				{
					"destination" : [ "obj-70", 0 ],
					"source" : [ "obj-72", 0 ]
				}

			}
, 			{
				"patchline" : 				{
					"destination" : [ "obj-24", 0 ],
					"source" : [ "obj-73", 0 ]
				}

			}
, 			{
				"patchline" : 				{
					"destination" : [ "obj-44", 0 ],
					"source" : [ "obj-8", 0 ]
				}

			}
, 			{
				"patchline" : 				{
					"destination" : [ "obj-188", 0 ],
					"source" : [ "obj-85", 0 ]
				}

			}
, 			{
				"patchline" : 				{
					"destination" : [ "obj-51", 0 ],
					"source" : [ "obj-9", 0 ]
				}

			}
, 			{
				"patchline" : 				{
					"destination" : [ "obj-67", 0 ],
					"midpoints" : [ 667.5, 240.5, 366.166687000000024, 240.5 ],
					"source" : [ "obj-95", 0 ]
				}

			}
, 			{
				"patchline" : 				{
					"destination" : [ "obj-95", 0 ],
					"midpoints" : [ 701.5, 209.0, 667.5, 209.0 ],
					"source" : [ "obj-96", 1 ]
				}

			}
, 			{
				"patchline" : 				{
					"destination" : [ "obj-99", 0 ],
					"source" : [ "obj-97", 0 ]
				}

			}
, 			{
				"patchline" : 				{
					"destination" : [ "obj-67", 0 ],
					"midpoints" : [ 575.5, 240.5, 366.166687000000024, 240.5 ],
					"source" : [ "obj-99", 0 ]
				}

			}
 ],
		"dependency_cache" : [  ],
		"autosave" : 0,
		"styles" : [ 			{
				"name" : "AudioStatus_Menu",
				"default" : 				{
					"bgfillcolor" : 					{
						"type" : "color",
						"color" : [ 0.294118, 0.313726, 0.337255, 1 ],
						"color1" : [ 0.454902, 0.462745, 0.482353, 0.0 ],
						"color2" : [ 0.290196, 0.309804, 0.301961, 1.0 ],
						"angle" : 270.0,
						"proportion" : 0.39,
						"autogradient" : 0
					}

				}
,
				"parentstyle" : "",
				"multi" : 0
			}
 ],
		"toolbaradditions" : [ "audiosolo" ],
		"toolbarexclusions" : [ "audiosolo" ]
	}

}
